<svg id="图层_1" data-name="图层 1" xmlns="http://www.w3.org/2000/svg" viewBox="0 0 260.36 260.36"><defs><style>.cls-1{fill:#f2bf32;}.cls-2{fill:#231815;}</style></defs><title>manbo</title><circle class="cls-1" cx="160.45" cy="153.42" r="130.18" transform="translate(-91.76 135.15) rotate(-45)"/><circle class="cls-1" cx="130.18" cy="130.18" r="121.27"/><polygon class="cls-2" points="58.29 171.7 54.96 181.08 53.67 181.11 50.29 171.73 45.48 171.74 45.53 187.28 48.52 187.27 48.48 175.48 52.85 187.26 55.49 187.25 59.71 175.44 59.75 187.24 63.02 187.22 62.97 171.69 58.29 171.7"/><path class="cls-2" d="M119.24,194.84l-5.63,15.56h3.59l1.13-3.57H124l1.17,3.55h3.61l-5.62-15.52Zm-.2,9.42,1.76-5.43h.6l1.79,5.42Z" transform="translate(-30.27 -23.24)"/><polygon class="cls-2" points="131.28 171.47 131.31 182.27 124.21 171.49 120.6 171.5 120.65 187.04 123.79 187.03 123.76 175.89 131.07 187.01 134.46 187 134.41 171.46 131.28 171.47"/><path class="cls-2" d="M196.53,201.8v0a4.47,4.47,0,0,0,2.14-1.32,3.23,3.23,0,0,0,.85-2.22,3.07,3.07,0,0,0-1.38-2.67,6.82,6.82,0,0,0-3.92-1l-5.51,0,0,15.54,5.8,0a6.3,6.3,0,0,0,4.11-1.26,4.14,4.14,0,0,0,1.49-3.37,3.41,3.41,0,0,0-1-2.52A4.35,4.35,0,0,0,196.53,201.8ZM192,197.08h1.41c1.74,0,2.61.59,2.61,1.78a1.86,1.86,0,0,1-.65,1.52,2.68,2.68,0,0,1-1.78.54H192Zm4,10a3,3,0,0,1-2,.58h-2l0-4.26H194a3.24,3.24,0,0,1,2,.54,1.79,1.79,0,0,1,.7,1.52A2,2,0,0,1,196,207.09Z" transform="translate(-30.27 -23.24)"/><path class="cls-2" d="M231.24,194.22a8.24,8.24,0,0,0-3.45.72l1.6,2.54a3.83,3.83,0,0,1,1.76-.39,3.53,3.53,0,0,1,3,1.4,6.3,6.3,0,0,1,1.06,3.84,6.2,6.2,0,0,1-.73,3.19l1.78,2.82q.16-.15.33-.33a8.29,8.29,0,0,0,2.09-5.9,8.12,8.12,0,0,0-2-5.69A7,7,0,0,0,231.24,194.22Z" transform="translate(-30.27 -23.24)"/><path class="cls-2" d="M231.1,207.42a3.54,3.54,0,0,1-3-1.43,5.92,5.92,0,0,1-1.1-3.7,6.07,6.07,0,0,1,.92-3.49L226.15,196c-.18.16-.36.34-.53.52a8.37,8.37,0,0,0-2.11,5.95,7.86,7.86,0,0,0,2.1,5.64,7.14,7.14,0,0,0,5.43,2.17,7.77,7.77,0,0,0,3.61-.81l-1.6-2.53A3.91,3.91,0,0,1,231.1,207.42Z" transform="translate(-30.27 -23.24)"/><path class="cls-2" d="M89.1,132.41l0,13.14h0v3l4.5,0v-.77l53.52-.17v.77h4.5v-.78h0L151.61,130h0v-.78h-4.5V130l-53.52.17v-.77h-4.5v3Zm58,2.06,0,8.65-12.71,0,0-7.62-4.5,0,0,7.61-19.09.06,0-7.61h-4.5l0,7.62-12.72,0,0-8.65Z" transform="translate(-30.27 -23.24)"/><path class="cls-2" d="M199.1,182.22l43.23-.14-.23-69.83-19.88.06,0-5.07h-4.5l0,5.08-18.84.06Zm38.52-65.46.19,60.84-34.22.11-.09-28.92,30.54-.1v-4.5l-30.55.1-.09-27.42Z" transform="translate(-30.27 -23.24)"/><polygon class="cls-2" points="161.91 134.57 166.02 132.74 150.31 97.49 150.3 93.8 163.84 93.75 163.82 89.25 150.29 89.3 150.25 77.88 145.75 77.9 145.79 89.31 132.25 89.36 132.26 93.86 145.8 93.81 145.81 96.11 126.33 146.98 130.54 148.59 145.85 108.59 146.02 163.48 150.52 163.47 150.35 108.62 161.91 134.57"/><path class="cls-2" d="M149.84,151.33l-55.62.18,0,4.5h4.39l17.68,11.36L93.12,182.15l2.42,3.79L120.48,170l28,18-.08-23.62h-4.5l.05,15.35-19.24-12.37ZM106.91,156l27.42-.09-13.84,8.82Z" transform="translate(-30.27 -23.24)"/><rect class="cls-2" x="56.92" y="164.4" width="38.41" height="4.5" transform="matrix(0.16, -0.99, 0.99, 0.16, -130.7, 192.36)"/><rect class="cls-2" x="76.24" y="103.58" width="4.5" height="16.25" transform="translate(-80.57 43.18) rotate(-35.53)"/><rect class="cls-2" x="74.9" y="122.5" width="4.5" height="16.25" transform="translate(-91.81 45.92) rotate(-35.53)"/><path class="cls-2" d="M146.48,122.67l-.06-20.06-52.35.16.06,20.07Zm-4.55-15.55,0,11.07-43.35.14V115l40.05-.13v-4.5l-40.06.13v-3.28Z" transform="translate(-30.27 -23.24)"/></svg>