<?xml version="1.0" standalone="no"?><!DOCTYPE svg PUBLIC "-//W3C//DTD SVG 1.1//EN" "http://www.w3.org/Graphics/SVG/1.1/DTD/svg11.dtd"><svg t="1645854128521" class="icon" viewBox="0 0 1024 1024" version="1.1" xmlns="http://www.w3.org/2000/svg" p-id="7640" xmlns:xlink="http://www.w3.org/1999/xlink" width="200" height="200"><defs><style type="text/css"></style></defs><path d="M490.666667 725.333333h384v42.666667H490.666667z" fill="#979797" p-id="7641"></path><path d="M682.666667 42.666667a64 64 0 0 1 64 64v576h106.666666a64 64 0 0 1 0 128h-106.666666v106.666666a64 64 0 0 1-64 64H341.333333a64 64 0 0 1-64-64V106.666667a64 64 0 0 1 64-64h341.333334z m0 42.666666H341.333333a21.333333 21.333333 0 0 0-21.333333 21.333334v810.666666a21.333333 21.333333 0 0 0 21.333333 21.333334h341.333334a21.333333 21.333333 0 0 0 21.333333-21.333334v-106.666666h-192a64 64 0 0 1 0-128h192V106.666667a21.333333 21.333333 0 0 0-21.333333-21.333334z m-149.333334 768a21.333333 21.333333 0 0 1 0 42.666667h-42.666666a21.333333 21.333333 0 0 1 0-42.666667h42.666666z m213.333334-85.333333h106.666666a21.333333 21.333333 0 0 0 0-42.666667H512a21.333333 21.333333 0 0 0 0 42.666667h234.666667zM405.333333 554.666667a21.333333 21.333333 0 1 1 0 42.666666 21.333333 21.333333 0 0 1 0-42.666666z m106.666667 0a21.333333 21.333333 0 1 1 0 42.666666 21.333333 21.333333 0 0 1 0-42.666666z m106.666667 0a21.333333 21.333333 0 1 1 0 42.666666 21.333333 21.333333 0 0 1 0-42.666666z m-213.333334-85.333334a21.333333 21.333333 0 1 1 0 42.666667 21.333333 21.333333 0 0 1 0-42.666667z m106.666667 0a21.333333 21.333333 0 1 1 0 42.666667 21.333333 21.333333 0 0 1 0-42.666667z m106.666667 0a21.333333 21.333333 0 1 1 0 42.666667 21.333333 21.333333 0 0 1 0-42.666667z m-213.333334-85.333333a21.333333 21.333333 0 1 1 0 42.666667 21.333333 21.333333 0 0 1 0-42.666667z m106.666667 0a21.333333 21.333333 0 1 1 0 42.666667 21.333333 21.333333 0 0 1 0-42.666667z m106.666667 0a21.333333 21.333333 0 1 1 0 42.666667 21.333333 21.333333 0 0 1 0-42.666667z m21.333333-256a21.333333 21.333333 0 0 1 21.333333 21.333333v149.333334a21.333333 21.333333 0 0 1-21.333333 21.333333H384a21.333333 21.333333 0 0 1-21.333333-21.333333V149.333333a21.333333 21.333333 0 0 1 21.333333-21.333333h256z m-21.333333 42.666667H405.333333v106.666666h213.333334V170.666667z" fill="#979797" p-id="7642"></path></svg>