<?xml version="1.0" standalone="no"?><!DOCTYPE svg PUBLIC "-//W3C//DTD SVG 1.1//EN" "http://www.w3.org/Graphics/SVG/1.1/DTD/svg11.dtd"><svg t="1645671371289" class="icon" viewBox="0 0 1160 1024" version="1.1" xmlns="http://www.w3.org/2000/svg" p-id="12541" xmlns:xlink="http://www.w3.org/1999/xlink" width="226.5625" height="200"><defs><style type="text/css"></style></defs><path d="M116.26701 941.739C29.15901 824.32-15.69299 672.768 4.99201 510.429 38.51201 246.648 251.29801 34.749 511.80401 4.984c349.935-40.004 646.349 236.681 646.349 583.612a590.438 590.438 0 0 1-116.258 353.212 52.156 52.156 0 0 1-41.984 20.616H158.38801a52.36 52.36 0 0 1-42.121-20.684z m856.747-86.153a485.717 485.717 0 0 0-21.71-563.95 465.237 465.237 0 0 0-276.957-174.217c-302.83-60.212-569.07 174.558-569.07 471.176 0 94.96 27.784 187.802 79.871 266.991h787.797zM579.04701 54.546c35.089 0 52.633 17.68 52.633 53.042v107.52c0 35.362-17.544 53.043-52.565 53.043h-0.068c-35.09 0-52.634-17.749-52.634-53.043v-107.52c0-35.362 17.545-53.043 52.634-53.043z m223.368 307.472a53.93 53.93 0 0 1 0-75.571l74.41-75.571a52.156 52.156 0 0 1 74.412 0 53.93 53.93 0 0 1 0 75.57l-74.411 75.572a52.224 52.224 0 0 1-74.41 0z m303.036 226.44v0.274c0 35.498-17.613 53.248-52.77 53.248H947.68701c-35.226 0-52.77-17.75-52.77-53.248v-0.273c0-35.499 17.544-53.248 52.77-53.248h104.994c35.157 0 52.77 17.749 52.77 53.248z m-749.773-226.44a52.224 52.224 0 0 1-74.41 0l-74.411-75.571a53.93 53.93 0 0 1 0-75.571 52.156 52.156 0 0 1 74.41 0l74.411 75.57a53.93 53.93 0 0 1 0 75.572zM52.64201 588.732v-0.273c0-35.499 17.613-53.248 52.839-53.248h104.926c35.225 0 52.838 17.749 52.838 53.248v0.341c0 35.499-17.613 53.248-52.838 53.248H105.48001c-35.226 0-52.839-17.75-52.839-53.248z m368.504-224.256l68.608 278.118c5.803 23.416 22.118 42.667 44.168 52.088 21.982 9.42 47.104 7.782 67.79-4.301l8.191-4.779a77.005 77.005 0 0 0 14.882-121.173l-203.64-199.953z" p-id="12542" fill="#ffffff"></path></svg>