<?xml version="1.0" standalone="no"?><!DOCTYPE svg PUBLIC "-//W3C//DTD SVG 1.1//EN" "http://www.w3.org/Graphics/SVG/1.1/DTD/svg11.dtd"><svg t="1645852216992" class="icon" viewBox="0 0 1024 1024" version="1.1" xmlns="http://www.w3.org/2000/svg" p-id="4134" xmlns:xlink="http://www.w3.org/1999/xlink" width="200" height="200"><defs><style type="text/css"></style></defs><path d="M825.611627 483.411895 392.464533 483.411895 392.464533 311.327608c0-75.091232 61.095473-136.186705 136.186705-136.186705 75.096349 0 136.192845 61.095473 136.192845 136.186705 0 25.822109 20.935822 46.75793 46.75793 46.75793 25.822109 0 46.75793-20.935822 46.75793-46.75793 0-126.660748-103.047957-229.702566-229.708705-229.702566S298.948673 184.66686 298.948673 311.327608l0 172.084287-67.25373 0c-25.716708 0-46.75793 21.041222-46.75793 46.75793l0 363.974665c0 25.716708 21.041222 46.75793 46.75793 46.75793l593.916684 0c25.716708 0 46.75793-21.041222 46.75793-46.75793L872.369557 530.168802C872.369557 504.452093 851.328335 483.411895 825.611627 483.411895zM567.353702 706.428178l0 87.700411c0 20.890796-17.093307 37.984103-37.984103 37.984103l-1.430582 0c-20.890796 0-37.984103-17.093307-37.984103-37.984103l0-87.701434c-18.328437-12.419867-30.375821-33.411971-30.375821-57.219189 0-38.149878 30.92636-69.076238 69.075215-69.076238 38.149878 0 69.076238 30.92636 69.076238 69.076238C597.730547 673.016207 585.68214 694.007287 567.353702 706.428178z" p-id="4135" fill="#ff7C00"></path></svg>