<?xml version="1.0" standalone="no"?><!DOCTYPE svg PUBLIC "-//W3C//DTD SVG 1.1//EN" "http://www.w3.org/Graphics/SVG/1.1/DTD/svg11.dtd"><svg t="1646377104191" class="icon" viewBox="0 0 1024 1024" version="1.1" xmlns="http://www.w3.org/2000/svg" p-id="2782" xmlns:xlink="http://www.w3.org/1999/xlink" width="200" height="200"><defs><style type="text/css"></style></defs><path d="M826.88 406.016c-58.368 0-105.984 47.616-105.984 105.984s47.616 105.984 105.984 105.984c58.368 0 105.984-47.616 105.984-105.984s-47.616-105.984-105.984-105.984zM512 406.016c-58.368 0-105.984 47.616-105.984 105.984s47.616 105.984 105.984 105.984c58.368 0 105.984-47.616 105.984-105.984s-47.104-105.984-105.984-105.984zM197.632 406.016c-58.368 0-105.984 47.616-105.984 105.984s47.616 105.984 105.984 105.984c58.368 0 105.984-47.616 105.984-105.984S256 406.016 197.632 406.016z" p-id="2783"></path></svg>